<?xml version="1.0" encoding="UTF-8" standalone="no"?>
<!-- Created with Inkscape (http://www.inkscape.org/) -->

<svg
   xmlns:dc="http://purl.org/dc/elements/1.1/"
   xmlns:cc="http://creativecommons.org/ns#"
   xmlns:rdf="http://www.w3.org/1999/02/22-rdf-syntax-ns#"
   xmlns:svg="http://www.w3.org/2000/svg"
   xmlns="http://www.w3.org/2000/svg"
   xmlns:sodipodi="http://sodipodi.sourceforge.net/DTD/sodipodi-0.dtd"
   xmlns:inkscape="http://www.inkscape.org/namespaces/inkscape"
   width="914.28571"
   height="891.14288"
   id="svg3794"
   version="1.1"
   inkscape:version="0.48.2 r9819"
   sodipodi:docname="delta_fluvial.eps">
  <defs
     id="defs3796">
    <clipPath
       clipPathUnits="userSpaceOnUse"
       id="clipPath3852">
      <rect
         style="fill:#00ffff;fill-opacity:1;stroke:none"
         id="rect3854"
         width="914.28571"
         height="891.42859"
         x="58.285709"
         y="257.21933" />
    </clipPath>
  </defs>
  <sodipodi:namedview
     id="base"
     pagecolor="#ffffff"
     bordercolor="#666666"
     borderopacity="1.0"
     inkscape:pageopacity="0.0"
     inkscape:pageshadow="2"
     inkscape:zoom="0.35"
     inkscape:cx="1443.5714"
     inkscape:cy="634"
     inkscape:document-units="px"
     inkscape:current-layer="layer1"
     showgrid="false"
     fit-margin-top="0"
     fit-margin-left="0"
     fit-margin-right="0"
     fit-margin-bottom="0"
     inkscape:window-width="1920"
     inkscape:window-height="1018"
     inkscape:window-x="-8"
     inkscape:window-y="-8"
     inkscape:window-maximized="1" />
  <metadata
     id="metadata3799">
    <rdf:RDF>
      <cc:Work
         rdf:about="">
        <dc:format>image/svg+xml</dc:format>
        <dc:type
           rdf:resource="http://purl.org/dc/dcmitype/StillImage" />
        <dc:title></dc:title>
      </cc:Work>
    </rdf:RDF>
  </metadata>
  <g
     inkscape:label="Layer 1"
     inkscape:groupmode="layer"
     id="layer1"
     transform="translate(1068.5714,-275.21932)">
    <g
       transform="translate(-1126.8571,17.999994)"
       id="g3780"
       clip-path="url(#clipPath3852)">
      <rect
         y="256.35397"
         x="-24.008469"
         height="888.01642"
         width="992.05792"
         id="rect4853"
         style="fill:#808000;fill-opacity:1;stroke:none" />
      <path
         inkscape:connector-curvature="0"
         id="path4855"
         d="m -28,964.36218 c 0,0 127.999999,-56 244,-132 116,-76 184,-232 256,-279.99999 72,-48 216,-20 328,-84 112,-64 260,-216 260,-216 l 132,-4 -8,160 c 0,0 -76,140 -240,183.99999 -164,44 -216,8 -356,108 -140,100 -84,132 8,80 92,-52 379.99999,-156 379.99999,-156 0,0 172.00001,96 64.00001,140 -108,44 -340,44 -244,104 96,60 148,72 191.99999,60 44.00001,-12 76.00001,68 72.00001,92.00002 -4,24 168,152 -64.00001,120 -231.99999,-32 -163.99999,-68 -343.99999,-136 -180,-68.00002 -412,8 -412,8 0,0 -68,152 -188,88 -120,-64 -80,-136.00002 -80,-136.00002 z"
         style="fill:#ffff00;stroke:none" />
      <path
         sodipodi:nodetypes="cscsccccsssscssssscssssssc"
         transform="translate(0,308.2677)"
         inkscape:connector-curvature="0"
         id="path4923"
         d="m 963.99999,84.094486 c 0,0 -139.99999,88.000004 -163.99999,96.000004 -24,8 -108,32 -108,32 0,0 -112,-12 -168,36 -56,47.99999 -144,119.99999 -144,119.99999 l -136,164 -192,108 4,120 c 0,0 -76,52 76,-56 152,-108 188,-148 244,-136 56,12 84,0 168,48 84,48 68,40 248,104 179.99999,64 183.99999,56 183.99999,56 0,0 40.00001,-120 -16,-120 -55.99999,0 48.00001,80 -95.99999,-20 -144,-100 -200,-104 -148,-120 52,-16 148,-44 200,-60 51.99999,-16 51.99999,104 55.99999,-16 4,-120 -24,-104 -24,-104 0,0 -36,28 -103.99999,60 -68,32 -155.8541,68.92982 -230,96 -66.32259,24.21394 -270,24 -186,-48 84,-72 172,-148 244,-156 72,-8 104,16 160,-12 56,-27.99999 100,-55.99999 119.99999,-71.99999 20,-16 12,-120.000004 12,-120.000004 z"
         style="fill:#0000ff;stroke:#000000;stroke-width:1px;stroke-linecap:butt;stroke-linejoin:miter;stroke-opacity:1" />
      <g
         transform="translate(-44,48)"
         id="g4837"
         style="stroke:none">
        <path
           inkscape:connector-curvature="0"
           id="path4610"
           d="m 30.093363,965.61701 c 0,0 168.929557,-98.37992 282.994947,-166.71067 140.08326,-83.91674 195.36876,19.34473 335.59798,-7.95122 34.72619,-6.75954 378.39191,-147.19597 378.39191,-147.19597"
           style="fill:none;stroke:none" />
        <path
           inkscape:connector-curvature="0"
           id="path2960"
           d="m 40.198654,981.8162 c 0,0 -13.605402,-22.38342 -13.605402,-22.38342 0,0 47.646391,-26.58227 57.75534,-32.49379 10.108949,-5.91152 32.173128,-22.26063 51.129728,-31.09623 18.9566,-8.8356 81.42113,-51.40568 100.33979,-60.32219 18.91866,-8.9165 57.1344,-34.60353 89.43267,-51.45898 32.29827,-16.85546 40.12341,-39.50913 119.6315,-25.28552 79.5081,14.22361 110.51582,33.37932 148.33498,31.79633 37.81917,-1.58299 241.33716,-95.04412 313.136,-115.28345 71.79884,-20.23933 111.83734,-49.50625 111.83734,-49.50625 0,0 11.1,23.41896 11.1,23.41896 0,0 -1.309,0.66704 -1.309,0.66704 0,0 -40.13226,29.30479 -111.9311,49.54413 -71.79884,20.23933 -285.98894,115.55774 -323.8081,117.14074 -37.81917,1.58299 -71.15747,-17.76534 -150.66557,-31.98895 -79.50809,-14.22361 -71.99902,5.69091 -104.29729,22.54637 -32.29828,16.85545 -69.26,41.84405 -88.17865,50.76055 -18.91866,8.9165 -81.47879,51.54316 -100.43539,60.37876 -18.9566,8.8356 -41.08309,25.22125 -51.192035,31.13278 -10.108949,5.91152 -57.788846,32.63538 -57.788846,32.63538"
           style="fill:#ff0000;stroke:none" />
        <path
           sodipodi:nodetypes="ccssssssscccsssssssc"
           inkscape:connector-curvature="0"
           id="path7912"
           d="m 1101.8949,973.19536 -107.92034,22.79477 c 0,0 -24.80392,8.21137 -29.68659,8.58517 -4.88268,0.3738 -18.8487,2.604 -26.87331,-1.3195 -8.02462,-3.92356 -40.82476,-15.05795 -46.74813,-21.74411 -5.92337,-6.68617 -22.03578,-19.16445 -32.50686,-30.23114 -10.47109,-11.06668 -14.11075,-9.69376 -33.27811,-37.7415 -19.16736,-28.04773 -28.69744,-37.89262 -43.06132,-45.0808 -14.36388,-7.18817 -99.73122,-34.70251 -127.37129,-50.8869 -27.64007,-16.1844 -47.64851,-5.45881 -47.64851,-5.45881 l 1.87559,-25.81329 0.6213,-0.0656 c 0,0 24.62879,-9.85308 52.26886,6.33131 27.64007,16.18439 121.66348,48.03673 136.02736,55.2249 14.36388,7.18818 27.70994,20.60666 46.87731,48.6544 19.16736,28.04774 22.1034,25.90036 32.57449,36.96705 10.47109,11.06668 22.80457,20.25407 28.72794,26.94023 5.92336,6.68616 29.51739,13.66019 37.54201,17.58373 8.02461,3.92355 14.10538,1.0907 18.98806,0.71689 4.88267,-0.3738 134.17044,-50.06527 134.17044,-50.06527"
           style="fill:#ff0000;stroke:none" />
        <path
           id="path3664"
           d="m 1177.1417,220.6456 12.4893,20.06897 c 0,0 -38.9106,42.46982 -47.3089,51.40729 -8.3982,8.93746 -27.1772,32.13184 -43.5304,45.16454 -16.3533,13.0327 -73.1338,67.33091 -90.4591,77.63014 -17.32527,10.29922 -54.64189,36.30459 -85.40099,52.42588 -30.75912,16.12129 -32.63956,29.09895 -104.99381,40.45299 -72.35425,11.35405 -103.7746,0.97246 -137.26228,9.94323 -33.48768,8.97079 -212.06796,125.19593 -265.4883,181.95692 -53.42034,56.76098 -78.80514,95.22009 -78.80514,95.22009 l -0.3593,-1.48462 -35.77181,2.62739 c 0,0 48.80616,-59.13131 102.22649,-115.89229 53.42033,-56.76099 242.34216,-179.63197 275.82985,-188.60276 33.48769,-8.97079 64.41577,1.5067 136.77003,-9.84736 72.35425,-11.35404 70.45005,-22.95192 101.20916,-39.07323 30.7591,-16.12129 65.99301,-40.82998 83.31828,-51.12921 17.32532,-10.29922 72.22122,-63.02771 88.57442,-76.06042 16.3532,-13.0327 34.2834,-35.37459 42.6816,-44.31205 8.3983,-8.93747 46.6988,-50.86879 46.6988,-50.86879"
           style="fill:#ff0000;stroke:none"
           inkscape:connector-curvature="0"
           sodipodi:nodetypes="ccssssssscccsssssssc" />
      </g>
      <rect
         transform="translate(0,308.2677)"
         y="-59.905514"
         x="968"
         height="900"
         width="236"
         id="rect4915"
         style="fill:#ffffff;fill-opacity:1;stroke:none" />
      <rect
         transform="translate(0,308.2677)"
         y="-67.90551"
         x="-36"
         height="904"
         width="96"
         id="rect4917"
         style="fill:#ffffff;fill-opacity:1;stroke:none" />
    </g>
  </g>
</svg>
