<?xml version="1.0" encoding="UTF-8" standalone="no"?>
<!-- Created with Inkscape (http://www.inkscape.org/) -->

<svg
   xmlns:dc="http://purl.org/dc/elements/1.1/"
   xmlns:cc="http://creativecommons.org/ns#"
   xmlns:rdf="http://www.w3.org/1999/02/22-rdf-syntax-ns#"
   xmlns:svg="http://www.w3.org/2000/svg"
   xmlns="http://www.w3.org/2000/svg"
   xmlns:sodipodi="http://sodipodi.sourceforge.net/DTD/sodipodi-0.dtd"
   xmlns:inkscape="http://www.inkscape.org/namespaces/inkscape"
   width="182.28229"
   height="84.857971"
   id="svg2"
   version="1.1"
   inkscape:version="0.48.2 r9819"
   sodipodi:docname="K1.eps">
  <defs
     id="defs4" />
  <sodipodi:namedview
     id="base"
     pagecolor="#ffffff"
     bordercolor="#666666"
     borderopacity="1.0"
     inkscape:pageopacity="0.0"
     inkscape:pageshadow="2"
     inkscape:zoom="1.4"
     inkscape:cx="193.82714"
     inkscape:cy="27.153559"
     inkscape:document-units="px"
     inkscape:current-layer="layer1"
     showgrid="false"
     fit-margin-top="0"
     fit-margin-left="0"
     fit-margin-right="0"
     fit-margin-bottom="0"
     inkscape:window-width="887"
     inkscape:window-height="712"
     inkscape:window-x="1"
     inkscape:window-y="56"
     inkscape:window-maximized="0" />
  <metadata
     id="metadata7">
    <rdf:RDF>
      <cc:Work
         rdf:about="">
        <dc:format>image/svg+xml</dc:format>
        <dc:type
           rdf:resource="http://purl.org/dc/dcmitype/StillImage" />
        <dc:title></dc:title>
      </cc:Work>
    </rdf:RDF>
  </metadata>
  <g
     inkscape:label="Layer 1"
     inkscape:groupmode="layer"
     id="layer1"
     transform="translate(-137.76817,-474.37403)">
    <rect
       style="fill:#00ffff;fill-opacity:1;fill-rule:nonzero;stroke:#000000;stroke-width:0.64370972;stroke-miterlimit:4;stroke-opacity:1;stroke-dasharray:none;stroke-dashoffset:0"
       id="rect3753"
       width="82.150795"
       height="180.69138"
       x="-555.21454"
       y="144.48445"
       transform="matrix(0.01148195,-0.99993408,0.99993408,0.01148195,0,0)" />
    <path
       sodipodi:type="arc"
       style="fill:#800000;fill-opacity:1;fill-rule:nonzero;stroke:#000000;stroke-width:3;stroke-miterlimit:4;stroke-opacity:1;stroke-dasharray:none;stroke-dashoffset:0"
       id="path3755"
       sodipodi:cx="362.14285"
       sodipodi:cy="324.09448"
       sodipodi:rx="49.285713"
       sodipodi:ry="38.57143"
       d="m 411.42857,324.09448 c 0,21.30242 -22.06597,38.57143 -49.28572,38.57143 -27.21974,0 -49.28571,-17.26901 -49.28571,-38.57143 0,-21.30241 22.06597,-38.57143 49.28571,-38.57143 27.21975,0 49.28572,17.26902 49.28572,38.57143 z"
       transform="matrix(0.01148195,-0.99993408,0.99993408,0.01148195,-90.895754,950.28558)" />
    <path
       sodipodi:type="arc"
       style="fill:#800000;fill-opacity:1;fill-rule:nonzero;stroke:#000000;stroke-width:3;stroke-miterlimit:4;stroke-opacity:1;stroke-dasharray:none;stroke-dashoffset:0"
       id="path3757"
       sodipodi:cx="485"
       sodipodi:cy="367.66592"
       sodipodi:rx="16.428572"
       sodipodi:ry="23.571428"
       d="m 501.42857,367.66592 c 0,13.01814 -7.35532,23.57143 -16.42857,23.57143 -9.07325,0 -16.42857,-10.55329 -16.42857,-23.57143 0,-13.01814 7.35532,-23.57142 16.42857,-23.57142 9.07325,0 16.42857,10.55328 16.42857,23.57142 z"
       transform="matrix(0.01148195,-0.99993408,0.99993408,0.01148195,-58.647683,1003.5165)" />
    <path
       sodipodi:type="arc"
       style="fill:#800000;fill-opacity:1;fill-rule:nonzero;stroke:#000000;stroke-width:3;stroke-miterlimit:4;stroke-opacity:1;stroke-dasharray:none;stroke-dashoffset:0"
       id="path3759"
       sodipodi:cx="562.85712"
       sodipodi:cy="286.95163"
       sodipodi:rx="20"
       sodipodi:ry="15.714286"
       d="m 582.85712,286.95163 c 0,8.67876 -8.95431,15.71429 -20,15.71429 -11.0457,0 -20,-7.03553 -20,-15.71429 0,-8.67876 8.9543,-15.71429 20,-15.71429 11.04569,0 20,7.03553 20,15.71429 z"
       transform="matrix(0.01148195,-0.99993408,1.17265,0.0134652,-119.92023,1039.9582)" />
    <path
       sodipodi:type="arc"
       style="fill:#800000;fill-opacity:1;fill-rule:nonzero;stroke:#000000;stroke-width:3;stroke-miterlimit:4;stroke-opacity:1;stroke-dasharray:none;stroke-dashoffset:0"
       id="path3761"
       sodipodi:cx="484.28571"
       sodipodi:cy="171.95163"
       sodipodi:rx="20"
       sodipodi:ry="42.142857"
       d="m 504.28571,171.95163 c 0,23.27486 -8.95431,42.14286 -20,42.14286 -11.0457,0 -20,-18.868 -20,-42.14286 0,-23.27486 8.9543,-42.14286 20,-42.14286 11.04569,0 20,18.868 20,42.14286 z"
       transform="matrix(0.01148195,-0.99993408,0.99993408,0.01148195,68.503199,1003.5479)" />
    <path
       sodipodi:type="arc"
       style="fill:#800000;fill-opacity:1;fill-rule:nonzero;stroke:#000000;stroke-width:3;stroke-miterlimit:4;stroke-opacity:1;stroke-dasharray:none;stroke-dashoffset:0"
       id="path3763"
       sodipodi:cx="430"
       sodipodi:cy="253.3802"
       sodipodi:rx="37.142857"
       sodipodi:ry="33.57143"
       d="m 467.14286,253.3802 c 0,18.54099 -16.62943,33.57143 -37.14286,33.57143 -20.51343,0 -37.14286,-15.03044 -37.14286,-33.57143 0,-18.54099 16.62943,-33.57143 37.14286,-33.57143 20.51343,0 37.14286,15.03044 37.14286,33.57143 z"
       transform="matrix(0.01148195,-0.99993408,0.99993408,0.01148195,102.4914,1029.6541)" />
    <path
       sodipodi:type="arc"
       style="fill:#800000;fill-opacity:1;fill-rule:nonzero;stroke:#000000;stroke-width:3;stroke-miterlimit:4;stroke-opacity:1;stroke-dasharray:none;stroke-dashoffset:0"
       id="path3765"
       sodipodi:cx="351.42856"
       sodipodi:cy="179.09448"
       sodipodi:rx="24.285715"
       sodipodi:ry="42.142857"
       d="m 375.71427,179.09448 c 0,23.27486 -10.87308,42.14286 -24.28571,42.14286 -13.41263,0 -24.28572,-18.868 -24.28572,-42.14286 0,-23.27485 10.87309,-42.14285 24.28572,-42.14285 13.41263,0 24.28571,18.868 24.28571,42.14285 z"
       transform="matrix(0.01124185,-0.9790248,0.97278753,0.01117023,-5.0524286,887.66849)" />
    <path
       sodipodi:type="arc"
       style="fill:#800000;fill-opacity:1;fill-rule:nonzero;stroke:#000000;stroke-width:3;stroke-miterlimit:4;stroke-opacity:1;stroke-dasharray:none;stroke-dashoffset:0"
       id="path3767"
       sodipodi:cx="257.85715"
       sodipodi:cy="279.09448"
       sodipodi:rx="33.57143"
       sodipodi:ry="30.714285"
       d="m 291.42858,279.09448 c 0,16.96303 -15.03044,30.71429 -33.57143,30.71429 -18.54099,0 -33.57143,-13.75126 -33.57143,-30.71429 0,-16.96303 15.03044,-30.71428 33.57143,-30.71428 18.54099,0 33.57143,13.75125 33.57143,30.71428 z"
       transform="matrix(0.01196014,-1.0415784,0.99993408,0.01148195,-117.1271,870.74856)" />
    <path
       sodipodi:type="arc"
       style="fill:#800000;fill-opacity:1;fill-rule:nonzero;stroke:#000000;stroke-width:3;stroke-miterlimit:4;stroke-opacity:1;stroke-dasharray:none;stroke-dashoffset:0"
       id="path3769"
       sodipodi:cx="308.57144"
       sodipodi:cy="220.52306"
       sodipodi:rx="20"
       sodipodi:ry="27.857143"
       d="m 328.57144,220.52306 c 0,15.38507 -8.9543,27.85714 -20,27.85714 -11.04569,0 -20,-12.47207 -20,-27.85714 0,-15.38508 8.95431,-27.85715 20,-27.85715 11.0457,0 20,12.47207 20,27.85715 z"
       transform="matrix(0.01148195,-0.99993408,0.99993408,0.01148195,75.102853,926.47571)" />
    <path
       sodipodi:type="arc"
       style="fill:#800000;fill-opacity:1;fill-rule:nonzero;stroke:#000000;stroke-width:3;stroke-miterlimit:4;stroke-opacity:1;stroke-dasharray:none;stroke-dashoffset:0"
       id="path3771"
       sodipodi:cx="267.14285"
       sodipodi:cy="406.95163"
       sodipodi:rx="15.714286"
       sodipodi:ry="17.142857"
       d="m 282.85714,406.95163 c 0,9.46774 -7.03553,17.14286 -15.71429,17.14286 -8.67876,0 -15.71428,-7.67512 -15.71428,-17.14286 0,-9.46774 7.03552,-17.14286 15.71428,-17.14286 8.67876,0 15.71429,7.67512 15.71429,17.14286 z"
       transform="matrix(0.01148195,-0.99993408,0.99993408,0.01148195,-240.13873,740.41528)" />
    <path
       sodipodi:type="arc"
       style="fill:#800000;fill-opacity:1;fill-rule:nonzero;stroke:#000000;stroke-width:3;stroke-miterlimit:4;stroke-opacity:1;stroke-dasharray:none;stroke-dashoffset:0"
       id="path3773"
       sodipodi:cx="295"
       sodipodi:cy="335.52304"
       sodipodi:rx="13.571428"
       sodipodi:ry="25.714285"
       d="m 308.57143,335.52304 c 0,14.20161 -6.07614,25.71429 -13.57143,25.71429 -7.49529,0 -13.57143,-11.51268 -13.57143,-25.71429 0,-14.20161 6.07614,-25.71428 13.57143,-25.71428 7.49529,0 13.57143,11.51267 13.57143,25.71428 z"
       transform="matrix(0.01148195,-0.99993408,0.99993408,0.01148195,-179.72908,798.39844)" />
    <path
       sodipodi:type="arc"
       style="fill:#800000;fill-opacity:1;fill-rule:nonzero;stroke:#000000;stroke-width:3;stroke-miterlimit:4;stroke-opacity:1;stroke-dasharray:none;stroke-dashoffset:0"
       id="path3775"
       sodipodi:cx="378.57144"
       sodipodi:cy="473.38019"
       sodipodi:rx="28.571428"
       sodipodi:ry="30.714285"
       d="m 407.14287,473.38019 c 0,16.96303 -12.79186,30.71428 -28.57143,30.71428 -15.77956,0 -28.57143,-13.75125 -28.57143,-30.71428 0,-16.96303 12.79187,-30.71429 28.57143,-30.71429 15.77957,0 28.57143,13.75126 28.57143,30.71429 z"
       transform="matrix(0.01278878,-1.1137424,0.78707817,0.00903779,-80.225421,985.36072)" />
    <path
       sodipodi:type="arc"
       style="fill:#800000;fill-opacity:1;fill-rule:nonzero;stroke:#000000;stroke-width:3;stroke-miterlimit:4;stroke-opacity:1;stroke-dasharray:none;stroke-dashoffset:0"
       id="path3777"
       sodipodi:cx="421.42856"
       sodipodi:cy="394.09448"
       sodipodi:rx="8.5714283"
       sodipodi:ry="17.142857"
       d="m 429.99999,394.09448 c 0,9.46774 -3.83756,17.14286 -8.57143,17.14286 -4.73387,0 -8.57143,-7.67512 -8.57143,-17.14286 0,-9.46774 3.83756,-17.14285 8.57143,-17.14285 4.73387,0 8.57143,7.67511 8.57143,17.14285 z"
       transform="matrix(0.01148195,-0.99993408,0.99993408,0.01148195,-130.37464,1060.1967)" />
    <path
       sodipodi:type="arc"
       style="fill:#800000;fill-opacity:1;fill-rule:nonzero;stroke:#000000;stroke-width:3;stroke-miterlimit:4;stroke-opacity:1;stroke-dasharray:none;stroke-dashoffset:0"
       id="path3782"
       sodipodi:cx="334.28571"
       sodipodi:cy="391.95163"
       sodipodi:rx="25.714285"
       sodipodi:ry="12.142858"
       d="m 359.99999,391.95163 c 0,6.70631 -11.51268,12.14286 -25.71428,12.14286 -14.20161,0 -25.71429,-5.43655 -25.71429,-12.14286 0,-6.70632 11.51268,-12.14286 25.71429,-12.14286 14.2016,0 25.71428,5.43654 25.71428,12.14286 z"
       transform="matrix(0.01169918,-1.0188517,0.81942124,0.00940917,-129.71148,835.08518)" />
    <path
       sodipodi:type="arc"
       style="fill:#800000;fill-opacity:1;fill-rule:nonzero;stroke:#000000;stroke-width:3;stroke-miterlimit:4;stroke-opacity:1;stroke-dasharray:none;stroke-dashoffset:0"
       id="path3784"
       sodipodi:cx="412.14285"
       sodipodi:cy="166.95163"
       sodipodi:rx="3.5714285"
       sodipodi:ry="17.142857"
       d="m 415.71428,166.95163 c 0,9.46774 -1.59898,17.14286 -3.57143,17.14286 -1.97244,0 -3.57143,-7.67512 -3.57143,-17.14286 0,-9.46774 1.59899,-17.14286 3.57143,-17.14286 1.97245,0 3.57143,7.67512 3.57143,17.14286 z"
       transform="matrix(0.01148195,-0.99993408,0.99993408,0.01148195,117.75998,913.03604)" />
    <path
       sodipodi:type="arc"
       style="fill:#800000;fill-opacity:1;fill-rule:nonzero;stroke:#000000;stroke-width:3;stroke-miterlimit:4;stroke-opacity:1;stroke-dasharray:none;stroke-dashoffset:0"
       id="path3786"
       sodipodi:cx="355"
       sodipodi:cy="236.95163"
       sodipodi:rx="3.5714285"
       sodipodi:ry="5.7142859"
       d="m 358.57143,236.95163 c 0,3.15591 -1.59898,5.71429 -3.57143,5.71429 -1.97245,0 -3.57143,-2.55838 -3.57143,-5.71429 0,-3.15591 1.59898,-5.71429 3.57143,-5.71429 1.97245,0 3.57143,2.55838 3.57143,5.71429 z"
       transform="matrix(0.01148195,-0.99993408,0.99993408,0.01148195,111.52635,1051.545)" />
    <path
       sodipodi:type="arc"
       style="fill:#800000;fill-opacity:1;fill-rule:nonzero;stroke:#000000;stroke-width:3;stroke-miterlimit:4;stroke-opacity:1;stroke-dasharray:none;stroke-dashoffset:0"
       id="path3788"
       sodipodi:cx="342.85715"
       sodipodi:cy="269.80878"
       sodipodi:rx="5.7142859"
       sodipodi:ry="7.1428571"
       d="m 348.57143,269.80878 c 0,3.94489 -2.55837,7.14285 -5.71428,7.14285 -3.15592,0 -5.71429,-3.19796 -5.71429,-7.14285 0,-3.94489 2.55837,-7.14286 5.71429,-7.14286 3.15591,0 5.71428,3.19797 5.71428,7.14286 z"
       transform="matrix(0.01148195,-0.99993408,0.99993408,0.01148195,-81.924671,915.52915)" />
    <path
       sodipodi:type="arc"
       style="fill:#800000;fill-opacity:1;fill-rule:nonzero;stroke:#000000;stroke-width:3;stroke-miterlimit:4;stroke-opacity:1;stroke-dasharray:none;stroke-dashoffset:0"
       id="path3790"
       sodipodi:cx="505"
       sodipodi:cy="326.23734"
       sodipodi:rx="15"
       sodipodi:ry="13.571428"
       d="m 520,326.23734 c 0,7.49529 -6.71573,13.57142 -15,13.57142 -8.28427,0 -15,-6.07613 -15,-13.57142 0,-7.4953 6.71573,-13.57143 15,-13.57143 8.28427,0 15,6.07613 15,13.57143 z"
       transform="matrix(0.00817005,-0.71150886,0.94921858,0.0108996,5.0048296,851.55657)" />
    <path
       sodipodi:type="arc"
       style="fill:#800000;fill-opacity:1;fill-rule:nonzero;stroke:#000000;stroke-width:3;stroke-miterlimit:4;stroke-opacity:1;stroke-dasharray:none;stroke-dashoffset:0"
       id="path3794"
       sodipodi:cx="448.57144"
       sodipodi:cy="345.52304"
       sodipodi:rx="11.428572"
       sodipodi:ry="11.428572"
       d="m 460.00001,345.52304 c 0,6.31183 -5.11674,11.42857 -11.42857,11.42857 -6.31182,0 -11.42857,-5.11674 -11.42857,-11.42857 0,-6.31183 5.11675,-11.42857 11.42857,-11.42857 6.31183,0 11.42857,5.11674 11.42857,11.42857 z"
       transform="matrix(0.01148195,-0.99993408,0.99993408,0.01148195,-150.95598,1079.6045)" />
    <path
       sodipodi:type="arc"
       style="fill:#800000;fill-opacity:1;fill-rule:nonzero;stroke:#000000;stroke-width:3;stroke-miterlimit:4;stroke-opacity:1;stroke-dasharray:none;stroke-dashoffset:0"
       id="path3796"
       sodipodi:cx="478.57144"
       sodipodi:cy="505.52304"
       sodipodi:rx="35.714287"
       sodipodi:ry="42.857143"
       d="m 514.28573,505.52304 c 0,23.66935 -15.98983,42.85714 -35.71429,42.85714 -19.72445,0 -35.71429,-19.18779 -35.71429,-42.85714 0,-23.66935 15.98984,-42.85714 35.71429,-42.85714 19.72446,0 35.71429,19.18779 35.71429,42.85714 z"
       transform="matrix(0.01148195,-0.99993408,0.99993408,0.01148195,-230.7225,934.39333)" />
    <path
       style="fill:#ffff00;stroke:#4d4d4d;stroke-width:0.96426678px;stroke-linecap:butt;stroke-linejoin:miter;stroke-opacity:1"
       d="m 264.39305,632.0367 c 8.03738,0.3124 7.92941,0.38552 7.64689,-0.67428 -0.28253,-1.05981 -0.99159,-1.53353 -1.35881,-2.55028 -0.36721,-1.01675 -0.11431,-3.26152 -1.38368,-2.70379 -1.26939,0.55772 -5.48961,4.56002 -5.24464,5.22318 0.24498,0.66316 0.34024,0.70517 0.34024,0.70517 z"
       id="path3859"
       inkscape:connector-curvature="0"
       sodipodi:nodetypes="cssssc" />
    <path
       sodipodi:nodetypes="cssssc"
       inkscape:connector-curvature="0"
       id="path3861"
       d="m 277.84295,602.06288 c 0.86809,0.57735 4.75712,-0.39926 4.94642,-1.93649 0.26465,-2.14916 -0.11067,-1.27085 -0.47789,-2.28761 -0.36721,-1.01674 -1.71576,-1.25945 -2.98513,-0.70174 -1.26939,0.55772 -0.61555,1.7576 -0.98265,2.46245 -0.51229,0.98361 -0.50075,2.46339 -0.50075,2.46339 z"
       style="fill:#ffff00;stroke:#4d4d4d;stroke-width:0.96426678px;stroke-linecap:butt;stroke-linejoin:miter;stroke-opacity:1" />
  </g>
</svg>
