<?xml version="1.0" encoding="UTF-8" standalone="no"?>
<!-- Created with Inkscape (http://www.inkscape.org/) -->

<svg
   xmlns:dc="http://purl.org/dc/elements/1.1/"
   xmlns:cc="http://creativecommons.org/ns#"
   xmlns:rdf="http://www.w3.org/1999/02/22-rdf-syntax-ns#"
   xmlns:svg="http://www.w3.org/2000/svg"
   xmlns="http://www.w3.org/2000/svg"
   xmlns:sodipodi="http://sodipodi.sourceforge.net/DTD/sodipodi-0.dtd"
   xmlns:inkscape="http://www.inkscape.org/namespaces/inkscape"
   width="1052.3622"
   height="744.09448"
   id="svg2"
   version="1.1"
   inkscape:version="0.48.0 r9654"
   sodipodi:docname="lob_1.svg">
  <defs
     id="defs4">
    <marker
       inkscape:stockid="Arrow1Lend"
       orient="auto"
       refY="0.0"
       refX="0.0"
       id="Arrow1Lend"
       style="overflow:visible;">
      <path
         id="path3787"
         d="M 0.0,0.0 L 5.0,-5.0 L -12.5,0.0 L 5.0,5.0 L 0.0,0.0 z "
         style="fill-rule:evenodd;stroke:#000000;stroke-width:1.0pt;marker-start:none;"
         transform="scale(0.8) rotate(180) translate(12.5,0)" />
    </marker>
  </defs>
  <sodipodi:namedview
     id="base"
     pagecolor="#ffffff"
     bordercolor="#666666"
     borderopacity="1.0"
     inkscape:pageopacity="0.0"
     inkscape:pageshadow="2"
     inkscape:zoom="0.98994949"
     inkscape:cx="690.66779"
     inkscape:cy="490.57039"
     inkscape:document-units="px"
     inkscape:current-layer="layer1"
     showgrid="false"
     inkscape:window-width="1280"
     inkscape:window-height="725"
     inkscape:window-x="0"
     inkscape:window-y="25"
     inkscape:window-maximized="1" />
  <metadata
     id="metadata7">
    <rdf:RDF>
      <cc:Work
         rdf:about="">
        <dc:format>image/svg+xml</dc:format>
        <dc:type
           rdf:resource="http://purl.org/dc/dcmitype/StillImage" />
        <dc:title></dc:title>
      </cc:Work>
    </rdf:RDF>
  </metadata>
  <g
     inkscape:label="Layer 1"
     inkscape:groupmode="layer"
     id="layer1"
     transform="translate(0,-308.2677)">
    <rect
       style="fill:#f9f9f9;fill-opacity:1;stroke:#000000;stroke-width:3;stroke-miterlimit:4;stroke-opacity:1;stroke-dasharray:none;stroke-dashoffset:0"
       id="rect2985"
       width="548.57141"
       height="418.57144"
       x="278.57144"
       y="96.951622"
       transform="translate(0,308.2677)"
       rx="0"
       ry="0" />
    <path
       style="fill:none;stroke:#000000;stroke-width:1;stroke-linecap:butt;stroke-linejoin:miter;stroke-miterlimit:4;stroke-opacity:1;stroke-dasharray:1, 2;stroke-dashoffset:0"
       d="m 488.69558,93.576548 c 1.36426,32.806992 23.77196,18.186592 23.79609,40.680162 0.0271,25.26308 -28.30978,14.15159 -25.78088,44.17266 2.23211,26.49791 121.16973,15.49809 122.08515,29.01128 3.09002,45.61391 61.20018,22.62043 60.925,65.94305 -0.23062,36.30752 24.36461,23.73718 26.18031,42.29238 1.63043,16.66189 -20.61231,23.00712 -20.1194,44.58074 0.32053,14.02904 -54.45049,20.77478 -55.23,38.26753 -1.13648,25.50355 -126.69225,10.21501 -126.77,33.4533 -0.0759,22.69025 22.44497,21.29111 19.05253,43.35612 -2.32178,15.10126 -35.3317,40.46624 -35.3317,40.46624"
       id="path2987"
       inkscape:connector-curvature="0"
       transform="translate(0,308.2677)"
       sodipodi:nodetypes="csssssssssc" />
    <path
       sodipodi:nodetypes="csssssssssc"
       inkscape:connector-curvature="0"
       id="path2989"
       d="m 500.69558,401.84425 c 1.36426,32.80699 23.77196,18.18659 23.79609,40.68016 0.0271,25.26308 -20.22856,14.15159 -17.69966,44.17266 2.23211,26.49791 113.08851,15.49809 114.00393,29.01128 3.09002,45.61391 62.21033,14.53921 61.93515,57.86183 -0.23062,36.30752 23.35446,41.91993 25.17016,60.47513 1.63043,16.66189 -20.61231,12.90559 -20.1194,34.47921 0.32053,14.02904 -52.43018,14.71386 -53.20969,32.20661 -1.13648,25.50355 -126.69225,24.35715 -126.77,47.59544 -0.0759,22.69025 20.42466,13.20989 17.03222,35.2749 -2.32178,15.10126 -15.12865,38.44593 -15.12865,38.44593"
       style="fill:none;stroke:#000000;stroke-width:1;stroke-linecap:butt;stroke-linejoin:miter;stroke-miterlimit:4;stroke-opacity:1;stroke-dasharray:1, 1;stroke-dashoffset:0" />
    <path
       style="fill:none;stroke:#000000;stroke-width:1;stroke-linecap:butt;stroke-linejoin:miter;stroke-miterlimit:4;stroke-opacity:1;stroke-dasharray:1, 1;stroke-dashoffset:0"
       d="m 480.69558,401.84425 c 1.36426,32.80699 23.77196,18.18659 23.79609,40.68016 0.0271,25.26308 -20.22856,14.15159 -17.69966,44.17266 2.23211,26.49791 113.08851,15.49809 114.00393,29.01128 3.09002,45.61391 62.21033,14.53921 61.93515,57.86183 -0.23062,36.30752 23.35446,41.91993 25.17016,60.47513 1.63043,16.66189 -20.61231,12.90559 -20.1194,34.47921 0.32053,14.02904 -52.43018,14.71386 -53.20969,32.20661 -1.13648,25.50355 -126.69225,24.35715 -126.77,47.59544 -0.0759,22.69025 20.42466,13.20989 17.03222,35.2749 -2.32178,15.10126 -15.12865,38.44593 -15.12865,38.44593"
       id="path3759"
       inkscape:connector-curvature="0"
       sodipodi:nodetypes="csssssssssc" />
    <path
       sodipodi:nodetypes="csssssssssc"
       inkscape:connector-curvature="0"
       id="path3761"
       d="m 508.69558,401.84425 c 1.36426,32.80699 23.77196,18.18659 23.79609,40.68016 0.0271,25.26308 -28.30978,14.15159 -25.78088,44.17266 2.23211,26.49791 121.16973,15.49809 122.08515,29.01128 3.09002,45.61391 61.20018,22.62043 60.925,65.94305 -0.23062,36.30752 24.36461,23.73718 26.18031,42.29238 1.63043,16.66189 -20.61231,23.00712 -20.1194,44.58074 0.32053,14.02904 -54.45049,20.77478 -55.23,38.26753 -1.13648,25.50355 -126.69225,10.21501 -126.77,33.4533 -0.0759,22.69025 22.44497,21.29111 19.05253,43.35612 -2.32178,15.10126 -35.3317,40.46624 -35.3317,40.46624"
       style="fill:none;stroke:#000000;stroke-width:1;stroke-linecap:butt;stroke-linejoin:miter;stroke-miterlimit:4;stroke-opacity:1;stroke-dasharray:1, 2;stroke-dashoffset:0" />
    <path
       style="fill:none;stroke:#000000;stroke-width:1;stroke-linecap:butt;stroke-linejoin:miter;stroke-miterlimit:4;stroke-opacity:1;stroke-dasharray:1, 1;stroke-dashoffset:0"
       d="m 520.69558,401.84425 c 1.36426,32.80699 23.77196,18.18659 23.79609,40.68016 0.0271,25.26308 -20.22856,14.15159 -17.69966,44.17266 2.23211,26.49791 113.08851,15.49809 114.00393,29.01128 3.09002,45.61391 62.21033,14.53921 61.93515,57.86183 -0.23062,36.30752 23.35446,41.91993 25.17016,60.47513 1.63043,16.66189 -20.61231,12.90559 -20.1194,34.47921 0.32053,14.02904 -52.43018,14.71386 -53.20969,32.20661 -1.13648,25.50355 -126.69225,24.35715 -126.77,47.59544 -0.0759,22.69025 20.42466,13.20989 17.03222,35.2749 -2.32178,15.10126 -15.12865,38.44593 -15.12865,38.44593"
       id="path3763"
       inkscape:connector-curvature="0"
       sodipodi:nodetypes="csssssssssc" />
    <path
       sodipodi:nodetypes="csssssssssc"
       inkscape:connector-curvature="0"
       id="path3765"
       d="m 500.69558,401.84425 c 1.36426,32.80699 23.77196,18.18659 23.79609,40.68016 0.0271,25.26308 -20.22856,14.15159 -17.69966,44.17266 2.23211,26.49791 113.08851,15.49809 114.00393,29.01128 3.09002,45.61391 62.21033,14.53921 61.93515,57.86183 -0.23062,36.30752 23.35446,41.91993 25.17016,60.47513 1.63043,16.66189 -20.61231,12.90559 -20.1194,34.47921 0.32053,14.02904 -52.43018,14.71386 -53.20969,32.20661 -1.13648,25.50355 -126.69225,24.35715 -126.77,47.59544 -0.0759,22.69025 20.42466,13.20989 17.03222,35.2749 -2.32178,15.10126 -15.12865,38.44593 -15.12865,38.44593"
       style="fill:none;stroke:#000000;stroke-width:1;stroke-linecap:butt;stroke-linejoin:miter;stroke-miterlimit:4;stroke-opacity:1;stroke-dasharray:1, 1;stroke-dashoffset:0" />
    <path
       style="fill:none;stroke:#000000;stroke-width:1px;stroke-linecap:butt;stroke-linejoin:miter;stroke-opacity:1;marker-mid:url(#Arrow1Lend)"
       d="m 279.81226,267.30248 c 82.07327,-16.16594 108.68168,-7.69444 125.18235,-13.22404 10.30711,-3.45405 39.70924,-0.5703 62.36084,-18.09068 78.57629,-60.77658 58.63456,-38.38581 58.63456,-38.38581"
       id="path3767"
       inkscape:connector-curvature="0"
       transform="translate(0,308.2677)"
       sodipodi:nodetypes="cssc" />
    <path
       style="fill:none;stroke:#000000;stroke-width:1px;stroke-linecap:butt;stroke-linejoin:miter;stroke-opacity:1;marker-mid:url(#Arrow1Lend)"
       d="m 275.77165,355.18575 c 65.54619,-2.30549 76.78565,-6.17757 118.02292,-3.98027 64.87802,3.45697 112.2831,6.17306 156.34281,28.30893 l 51.61406,28.19928"
       id="path3769"
       inkscape:connector-curvature="0"
       transform="translate(0,308.2677)"
       sodipodi:nodetypes="cscc" />
    <path
       style="fill:none;stroke:#000000;stroke-width:1px;stroke-linecap:butt;stroke-linejoin:miter;stroke-opacity:1;marker-mid:url(#Arrow1Lend)"
       d="m 278.8021,282.45477 c 203.04066,-18.18275 171.38074,-9.09138 237.04066,-18.18275 52.35764,-7.24952 91.41881,-37.88071 91.41881,-37.88071"
       id="path3771"
       inkscape:connector-curvature="0"
       transform="translate(0,308.2677)"
       sodipodi:nodetypes="csc" />
    <path
       style="fill:none;stroke:#000000;stroke-width:1px;stroke-linecap:butt;stroke-linejoin:miter;stroke-opacity:1;marker-mid:url(#Arrow1Lend)"
       d="m 280.82241,329.93194 c 0,0 140.36549,-3.03046 251.48227,8.08122 112.56215,11.25621 135.7843,17.67767 135.7843,17.67767"
       id="path3773"
       inkscape:connector-curvature="0"
       transform="translate(0,308.2677)"
       sodipodi:nodetypes="csc" />
    <path
       style="fill:none;stroke:#000000;stroke-width:1px;stroke-linecap:butt;stroke-linejoin:miter;stroke-opacity:1;marker-mid:url(#Arrow1Lend)"
       d="m 278.8021,295.58675 c 238.396,-2.0203 229.9696,2.02031 265.32493,-7.07106 37.75121,-9.70746 118.40611,-16.16245 118.40611,-16.16245"
       id="path3775"
       inkscape:connector-curvature="0"
       transform="translate(0,308.2677)"
       sodipodi:nodetypes="csc" />
    <path
       style="fill:none;stroke:#000000;stroke-width:1px;stroke-linecap:butt;stroke-linejoin:miter;stroke-opacity:1;marker-mid:url(#Arrow1Lend)"
       d="m 275.77164,315.78981 c 216.17264,3.03046 192.72686,0.58198 248.15234,3.03046 28.27473,1.24906 161.84266,15.15228 161.84266,15.15228"
       id="path3779"
       inkscape:connector-curvature="0"
       transform="translate(0,308.2677)"
       sodipodi:nodetypes="csc" />
    <path
       style="fill:none;stroke:#000000;stroke-width:1px;stroke-linecap:butt;stroke-linejoin:miter;stroke-opacity:1;marker-end:url(#Arrow1Lend)"
       d="M 827.31493,181.43951 C 597.00015,175.3786 527.00015,175.3786 527.00015,175.3786"
       id="path4225"
       inkscape:connector-curvature="0"
       transform="translate(0,308.2677)"
       sodipodi:nodetypes="cc" />
    <path
       style="fill:none;stroke:#000000;stroke-width:1px;stroke-linecap:butt;stroke-linejoin:miter;stroke-opacity:1;marker-end:url(#Arrow1Lend)"
       d="m 828.32509,280.43446 c -101.01526,-6.31345 -124.3757,-8.08122 -124.3757,-8.08122"
       id="path4227"
       inkscape:connector-curvature="0"
       transform="translate(0,308.2677)"
       sodipodi:nodetypes="cc" />
    <path
       style="fill:none;stroke:#000000;stroke-width:1px;stroke-linecap:butt;stroke-linejoin:miter;stroke-opacity:1;marker-end:url(#Arrow1Lend)"
       d="M 824.28448,363.26697 C 714.17785,360.48905 681.72603,359.22636 681.72603,359.22636"
       id="path4229"
       inkscape:connector-curvature="0"
       transform="translate(0,308.2677)"
       sodipodi:nodetypes="cc" />
    <path
       style="fill:none;stroke:#000000;stroke-width:1px;stroke-linecap:butt;stroke-linejoin:miter;stroke-opacity:1;marker-end:url(#Arrow1Lend)"
       d="M 827.31493,452.1604 C 602.05092,445.08933 532.05092,445.08933 532.05092,445.08933"
       id="path4231"
       inkscape:connector-curvature="0"
       transform="translate(0,308.2677)"
       sodipodi:nodetypes="cc" />
  </g>
</svg>
