<?xml version="1.0" encoding="UTF-8" standalone="no"?>
<!-- Created with Inkscape (http://www.inkscape.org/) -->

<svg
   xmlns:dc="http://purl.org/dc/elements/1.1/"
   xmlns:cc="http://creativecommons.org/ns#"
   xmlns:rdf="http://www.w3.org/1999/02/22-rdf-syntax-ns#"
   xmlns:svg="http://www.w3.org/2000/svg"
   xmlns="http://www.w3.org/2000/svg"
   xmlns:sodipodi="http://sodipodi.sourceforge.net/DTD/sodipodi-0.dtd"
   xmlns:inkscape="http://www.inkscape.org/namespaces/inkscape"
   width="1052.3622"
   height="744.09448"
   id="svg2"
   version="1.1"
   inkscape:version="0.48.0 r9654"
   sodipodi:docname="lob_2.svg">
  <defs
     id="defs4">
    <marker
       inkscape:stockid="Arrow1Lend"
       orient="auto"
       refY="0.0"
       refX="0.0"
       id="Arrow1Lend"
       style="overflow:visible;">
      <path
         id="path3787"
         d="M 0.0,0.0 L 5.0,-5.0 L -12.5,0.0 L 5.0,5.0 L 0.0,0.0 z "
         style="fill-rule:evenodd;stroke:#000000;stroke-width:1.0pt;marker-start:none;"
         transform="scale(0.8) rotate(180) translate(12.5,0)" />
    </marker>
  </defs>
  <sodipodi:namedview
     id="base"
     pagecolor="#ffffff"
     bordercolor="#666666"
     borderopacity="1.0"
     inkscape:pageopacity="0.0"
     inkscape:pageshadow="2"
     inkscape:zoom="0.98994949"
     inkscape:cx="720.10932"
     inkscape:cy="386.65073"
     inkscape:document-units="px"
     inkscape:current-layer="layer1"
     showgrid="false"
     inkscape:window-width="1280"
     inkscape:window-height="725"
     inkscape:window-x="0"
     inkscape:window-y="25"
     inkscape:window-maximized="1" />
  <metadata
     id="metadata7">
    <rdf:RDF>
      <cc:Work
         rdf:about="">
        <dc:format>image/svg+xml</dc:format>
        <dc:type
           rdf:resource="http://purl.org/dc/dcmitype/StillImage" />
        <dc:title></dc:title>
      </cc:Work>
    </rdf:RDF>
  </metadata>
  <g
     inkscape:label="Layer 1"
     inkscape:groupmode="layer"
     id="layer1"
     transform="translate(0,-308.2677)">
    <rect
       style="fill:#f9f9f9;fill-opacity:1;stroke:#000000;stroke-width:3;stroke-miterlimit:4;stroke-opacity:1;stroke-dasharray:none;stroke-dashoffset:0"
       id="rect2985"
       width="548.57141"
       height="418.57144"
       x="278.57144"
       y="96.951622"
       transform="translate(0,308.2677)"
       rx="0"
       ry="0" />
    <path
       style="fill:none;stroke:#000000;stroke-width:1;stroke-linecap:butt;stroke-linejoin:miter;stroke-miterlimit:4;stroke-opacity:1;stroke-dasharray:1, 2;stroke-dashoffset:0"
       d="m 488.69558,93.576548 c 1.36426,32.806992 59.77196,20.186592 59.79609,42.680162 0.0271,25.26308 79.69022,-11.84841 82.21912,18.17266 2.23211,26.49791 85.16973,13.49809 86.08515,27.01128 3.09002,45.61391 -112.79982,22.62043 -113.075,65.94305 -0.23062,36.30752 -97.63539,43.73718 -95.81969,62.29238 1.63043,16.66189 111.38769,29.00712 111.8806,50.58074 0.32053,14.02904 119.54951,20.77478 118.77,38.26753 -1.13648,25.50355 -76.69225,22.21501 -76.77,45.4533 -0.0759,22.69025 -95.55503,21.29111 -98.94747,43.35612 -2.32178,15.10126 -85.3317,28.46624 -85.3317,28.46624"
       id="path2987"
       inkscape:connector-curvature="0"
       transform="translate(0,308.2677)"
       sodipodi:nodetypes="csssssssssc" />
    <path
       sodipodi:nodetypes="csssssssssc"
       inkscape:connector-curvature="0"
       id="path2989"
       d="m 500.69558,401.84425 c 1.36426,32.80699 59.77196,20.18659 59.79609,42.68016 0.0271,25.26308 87.77144,-11.84841 90.30034,18.17266 2.23211,26.49791 77.08851,13.49809 78.00393,27.01128 3.09002,45.61391 -111.78967,14.53921 -112.06485,57.86183 -0.23062,36.30752 -98.64554,61.91993 -96.82984,80.47513 1.63043,16.66189 111.38769,18.90559 111.8806,40.47921 0.32053,14.02904 121.56982,14.71386 120.79031,32.20661 -1.13648,25.50355 -76.69225,36.35715 -76.77,59.59544 -0.0759,22.69025 -97.57534,13.20989 -100.96778,35.2749 -2.32178,15.10126 -65.12865,26.44593 -65.12865,26.44593"
       style="fill:none;stroke:#000000;stroke-width:1;stroke-linecap:butt;stroke-linejoin:miter;stroke-miterlimit:4;stroke-opacity:1;stroke-dasharray:1, 1;stroke-dashoffset:0" />
    <path
       style="fill:none;stroke:#000000;stroke-width:1;stroke-linecap:butt;stroke-linejoin:miter;stroke-miterlimit:4;stroke-opacity:1;stroke-dasharray:1, 1;stroke-dashoffset:0"
       d="m 480.69558,401.84425 c 1.36426,32.80699 59.77196,20.18659 59.79609,42.68016 0.0271,25.26308 87.77144,-11.84841 90.30034,18.17266 2.23211,26.49791 77.08851,13.49809 78.00393,27.01128 3.09002,45.61391 -111.78967,14.53921 -112.06485,57.86183 -0.23062,36.30752 -98.64554,61.91993 -96.82984,80.47513 1.63043,16.66189 111.38769,18.90559 111.8806,40.47921 0.32053,14.02904 121.56982,14.71386 120.79031,32.20661 -1.13648,25.50355 -76.69225,36.35715 -76.77,59.59544 -0.0759,22.69025 -97.57534,13.20989 -100.96778,35.2749 -2.32178,15.10126 -65.12865,26.44593 -65.12865,26.44593"
       id="path3759"
       inkscape:connector-curvature="0"
       sodipodi:nodetypes="csssssssssc" />
    <path
       sodipodi:nodetypes="csssssssssc"
       inkscape:connector-curvature="0"
       id="path3761"
       d="m 508.69558,401.84425 c 1.36426,32.80699 59.77196,20.18659 59.79609,42.68016 0.0271,25.26308 79.69022,-11.84841 82.21912,18.17266 2.23211,26.49791 85.16973,13.49809 86.08515,27.01128 3.09002,45.61391 -112.79982,22.62043 -113.075,65.94305 -0.23062,36.30752 -97.63539,43.73718 -95.81969,62.29238 1.63043,16.66189 111.38769,29.00712 111.8806,50.58074 0.32053,14.02904 119.54951,20.77478 118.77,38.26753 -1.13648,25.50355 -76.69225,22.21501 -76.77,45.4533 -0.0759,22.69025 -95.55503,21.29111 -98.94747,43.35612 -2.32178,15.10126 -85.3317,28.46624 -85.3317,28.46624"
       style="fill:none;stroke:#000000;stroke-width:1;stroke-linecap:butt;stroke-linejoin:miter;stroke-miterlimit:4;stroke-opacity:1;stroke-dasharray:1, 2;stroke-dashoffset:0" />
    <path
       style="fill:none;stroke:#000000;stroke-width:1;stroke-linecap:butt;stroke-linejoin:miter;stroke-miterlimit:4;stroke-opacity:1;stroke-dasharray:1, 1;stroke-dashoffset:0"
       d="m 520.69558,401.84425 c 1.36426,32.80699 59.77196,20.18659 59.79609,42.68016 0.0271,25.26308 87.77144,-11.84841 90.30034,18.17266 2.23211,26.49791 77.08851,13.49809 78.00393,27.01128 3.09002,45.61391 -111.78967,14.53921 -112.06485,57.86183 -0.23062,36.30752 -98.64554,61.91993 -96.82984,80.47513 1.63043,16.66189 111.38769,18.90559 111.8806,40.47921 0.32053,14.02904 121.56982,14.71386 120.79031,32.20661 -1.13648,25.50355 -76.69225,36.35715 -76.77,59.59544 -0.0759,22.69025 -97.57534,13.20989 -100.96778,35.2749 -2.32178,15.10126 -65.12865,26.44593 -65.12865,26.44593"
       id="path3763"
       inkscape:connector-curvature="0"
       sodipodi:nodetypes="csssssssssc" />
    <path
       sodipodi:nodetypes="csssssssssc"
       inkscape:connector-curvature="0"
       id="path3765"
       d="m 500.69558,401.84425 c 1.36426,32.80699 59.77196,20.18659 59.79609,42.68016 0.0271,25.26308 87.77144,-11.84841 90.30034,18.17266 2.23211,26.49791 77.08851,13.49809 78.00393,27.01128 3.09002,45.61391 -111.78967,14.53921 -112.06485,57.86183 -0.23062,36.30752 -98.64554,61.91993 -96.82984,80.47513 1.63043,16.66189 111.38769,18.90559 111.8806,40.47921 0.32053,14.02904 121.56982,14.71386 120.79031,32.20661 -1.13648,25.50355 -76.69225,36.35715 -76.77,59.59544 -0.0759,22.69025 -97.57534,13.20989 -100.96778,35.2749 -2.32178,15.10126 -65.12865,26.44593 -65.12865,26.44593"
       style="fill:none;stroke:#000000;stroke-width:1;stroke-linecap:butt;stroke-linejoin:miter;stroke-miterlimit:4;stroke-opacity:1;stroke-dasharray:1, 1;stroke-dashoffset:0" />
    <path
       style="fill:none;stroke:#000000;stroke-width:1px;stroke-linecap:butt;stroke-linejoin:miter;stroke-opacity:1;marker-mid:url(#Arrow1Lend)"
       d="m 279.81226,267.30248 c 82.07327,-16.16594 118.78321,-29.91779 135.28388,-35.44739 10.30711,-3.45405 14.34176,-5.99117 72.46236,-22.1313 110.32414,-30.63708 138.99495,-62.38581 138.99495,-62.38581"
       id="path3767"
       inkscape:connector-curvature="0"
       transform="translate(0,308.2677)"
       sodipodi:nodetypes="cssc" />
    <path
       style="fill:none;stroke:#000000;stroke-width:1px;stroke-linecap:butt;stroke-linejoin:miter;stroke-opacity:1;marker-mid:url(#Arrow1Lend)"
       d="m 275.77165,355.18575 c 63.52588,4.76558 90.82479,13.302 131.15491,18.24308 108.79505,13.32914 91.92511,12.24772 138.56654,12.48716 48.15029,0.24718 83.15603,5.68385 108.50214,12.79132 l 65.7562,9.00638"
       id="path3769"
       inkscape:connector-curvature="0"
       transform="translate(0,308.2677)"
       sodipodi:nodetypes="csscc" />
    <path
       style="fill:none;stroke:#000000;stroke-width:1px;stroke-linecap:butt;stroke-linejoin:miter;stroke-opacity:1;marker-mid:url(#Arrow1Lend)"
       d="m 278.8021,282.45477 c 52.52793,-10.10153 27.50094,-4.4794 93.34524,-12.12183 18.99195,-2.20436 76.10723,-23.7237 121.09771,-32.92411 102.97048,-21.05716 214.44038,-50.65458 214.44038,-50.65458"
       id="path3771"
       inkscape:connector-curvature="0"
       transform="translate(0,308.2677)"
       sodipodi:nodetypes="cssc" />
    <path
       style="fill:none;stroke:#000000;stroke-width:1px;stroke-linecap:butt;stroke-linejoin:miter;stroke-opacity:1;marker-mid:url(#Arrow1Lend)"
       d="m 280.82241,329.93194 c 0,0 -23.53299,-2.0203 87.5838,9.09137 40.1146,4.01146 97.69865,15.56236 137.65175,19.01708 72.15586,6.23929 117.64777,3.20628 117.64777,3.20628"
       id="path3773"
       inkscape:connector-curvature="0"
       transform="translate(0,308.2677)"
       sodipodi:nodetypes="cssc" />
    <path
       style="fill:none;stroke:#000000;stroke-width:1px;stroke-linecap:butt;stroke-linejoin:miter;stroke-opacity:1;marker-mid:url(#Arrow1Lend)"
       d="m 278.8021,295.58675 c 31.31473,1.01016 55.9696,2.02031 91.32493,-7.07106 37.75121,-9.70746 226.40611,-42.16245 226.40611,-42.16245"
       id="path3775"
       inkscape:connector-curvature="0"
       transform="translate(0,308.2677)"
       sodipodi:nodetypes="csc" />
    <path
       style="fill:none;stroke:#000000;stroke-width:1px;stroke-linecap:butt;stroke-linejoin:miter;stroke-opacity:1;marker-mid:url(#Arrow1Lend)"
       d="m 275.77164,315.78981 c 51.51778,-1.01015 53.17294,6.29421 104.45691,3.03046 12.04198,-0.76636 128.64977,-7.01016 128.64977,-7.01016"
       id="path3779"
       inkscape:connector-curvature="0"
       transform="translate(0,308.2677)"
       sodipodi:nodetypes="csc" />
    <path
       style="fill:none;stroke:#000000;stroke-width:1px;stroke-linecap:butt;stroke-linejoin:miter;stroke-opacity:1;marker-end:url(#Arrow1Lend)"
       d="m 827.31493,157.19585 c -121.2183,-2.0203 -151.17769,-4.06091 -151.17769,-4.06091"
       id="path4225"
       inkscape:connector-curvature="0"
       transform="translate(0,308.2677)"
       sodipodi:nodetypes="cc" />
    <path
       style="fill:none;stroke:#000000;stroke-width:1px;stroke-linecap:butt;stroke-linejoin:miter;stroke-opacity:1;marker-end:url(#Arrow1Lend)"
       d="m 825.29463,263.26187 c -101.01526,-6.31345 -195.42646,-6.8071 -195.42646,-6.8071"
       id="path4227"
       inkscape:connector-curvature="0"
       transform="translate(0,308.2677)"
       sodipodi:nodetypes="cc" />
    <path
       style="fill:none;stroke:#000000;stroke-width:1px;stroke-linecap:butt;stroke-linejoin:miter;stroke-opacity:1;marker-end:url(#Arrow1Lend)"
       d="m 824.28448,363.26697 c -110.10663,-2.77792 -178.3554,-4.04061 -178.3554,-4.04061"
       id="path4229"
       inkscape:connector-curvature="0"
       transform="translate(0,308.2677)"
       sodipodi:nodetypes="cc" />
    <path
       style="fill:none;stroke:#000000;stroke-width:1px;stroke-linecap:butt;stroke-linejoin:miter;stroke-opacity:1;marker-end:url(#Arrow1Lend)"
       d="M 827.31493,452.1604 C 720.17749,450.41847 699.54839,450.14009 699.54839,450.14009"
       id="path4231"
       inkscape:connector-curvature="0"
       transform="translate(0,308.2677)"
       sodipodi:nodetypes="cc" />
    <path
       style="fill:none;stroke:#000000;stroke-width:1px;stroke-linecap:butt;stroke-linejoin:miter;stroke-opacity:1;marker-mid:url(#Arrow1Lend)"
       d="m 278.8021,376.39896 c 92.55061,8.05114 142.66904,14.962 177.8713,19.55589 46.35474,6.04928 46.6419,6.06063 94.86989,19.84005 15.45055,4.41445 63.25145,14.06233 72.7691,19.05949 46.4289,24.37707 32.28676,14.27555 32.28676,14.27555"
       id="path4453"
       inkscape:connector-curvature="0"
       transform="translate(0,308.2677)"
       sodipodi:nodetypes="csssc" />
  </g>
</svg>
